<?xml version="1.0" encoding="utf-8" ?>
<svg xmlns="http://www.w3.org/2000/svg" xmlns:xlink="http://www.w3.org/1999/xlink" width="64" height="56">
	<defs>
		<clipPath id="clip_0">
			<rect x="-1159.48" y="-5412.6001" width="5068.7998" height="5860.8003" clip-rule="evenodd"/>
		</clipPath>
	</defs>
	<g clip-path="url(#clip_0)">
		<path fill="rgb(175,145,70)" stroke="none" transform="matrix(3.96 0 0 3.96 0.800049 0.720215)" d="M7.96359 1.59272C8.60068 0.891923 9.87486 0 11.6587 0C14.1433 0 15.9272 2.22981 15.9272 4.90557C15.9272 8.98293 11.8498 12.1047 8.28214 13.9522C8.09101 14.0159 7.89989 14.0159 7.70876 13.9522C4.07736 12.1047 0 8.98293 0 4.90557C0 2.22981 1.78385 0 4.26849 0C6.11604 0 7.32651 0.955631 7.96359 1.59272ZM1.27418 4.90557C1.27418 8.28214 4.90557 11.0853 7.96359 12.678C11.0216 11.0853 14.653 8.28214 14.653 4.84187C14.653 2.9306 13.4425 1.21047 11.595 1.21047C9.55631 1.21047 8.47326 2.86689 8.47326 2.86689C8.34585 3.05802 8.15472 3.18544 7.96359 3.18544C7.77247 3.18544 7.58134 3.12173 7.45392 2.9306C6.94425 2.1661 5.7975 1.27418 4.3322 1.27418C2.48464 1.27418 1.27418 2.99431 1.27418 4.90557Z" fill-rule="evenodd"/>
	</g>
	<defs>
		<clipPath id="clip_1">
			<rect x="-1159.48" y="-5412.6001" width="5068.7998" height="5860.8003" clip-rule="evenodd"/>
		</clipPath>
	</defs>
	<g clip-path="url(#clip_1)">
		<path fill="none" stroke="rgb(175,145,70)" stroke-width="0.69999999" stroke-miterlimit="4" transform="matrix(3.96 0 0 3.96 0.800049 0.720215)" d="M7.96359 1.59272C8.60068 0.891923 9.87486 0 11.6587 0C14.1433 0 15.9272 2.22981 15.9272 4.90557C15.9272 8.98293 11.8498 12.1047 8.28214 13.9522C8.09101 14.0159 7.89989 14.0159 7.70876 13.9522C4.07736 12.1047 0 8.98293 0 4.90557C0 2.22981 1.78385 0 4.26849 0C6.11604 0 7.32651 0.955631 7.96359 1.59272ZM1.27418 4.90557C1.27418 8.28214 4.90557 11.0853 7.96359 12.678C11.0216 11.0853 14.653 8.28214 14.653 4.84187C14.653 2.9306 13.4425 1.21047 11.595 1.21047C9.55631 1.21047 8.47326 2.86689 8.47326 2.86689C8.34585 3.05802 8.15472 3.18544 7.96359 3.18544C7.77247 3.18544 7.58134 3.12173 7.45392 2.9306C6.94425 2.1661 5.7975 1.27418 4.3322 1.27418C2.48464 1.27418 1.27418 2.99431 1.27418 4.90557Z" fill-rule="evenodd"/>
	</g>

</svg>