<?xml version="1.0" encoding="utf-8" ?>
<svg xmlns="http://www.w3.org/2000/svg" xmlns:xlink="http://www.w3.org/1999/xlink" width="60" height="55">
	<defs>
		<clipPath id="clip_0">
			<rect x="-4537.8398" y="-93.550003" width="5030.3999" height="5816.3999" clip-rule="evenodd"/>
		</clipPath>
	</defs>
	<g clip-path="url(#clip_0)">
		<path fill="rgb(0,0,0)" stroke="none" transform="matrix(3.93 0 0 3.93 1.31006 0.77002)" d="M7.50002 1.5462C8.10002 0.865873 9.30002 0 10.98 0C13.32 0 15 2.16468 15 4.7623C15 8.72057 11.16 11.7511 7.80002 13.5447C7.62002 13.6066 7.44002 13.6066 7.26002 13.5447C3.84001 11.7511 0 8.72057 0 4.7623C0 2.16468 1.68 0 4.02001 0C5.76002 0 6.90002 0.927721 7.50002 1.5462ZM1.05009 5.09932C1.05009 8.60924 4.51077 11.5231 7.42504 13.1788C10.3393 11.5231 13.8 8.60924 13.8 5.0331C13.8 3.04635 12.6464 1.25828 10.8857 1.25828C8.94288 1.25828 7.91075 2.98013 7.91075 2.98013C7.78932 3.1788 7.60718 3.31125 7.42504 3.31125C7.2429 3.31125 7.06075 3.24502 6.93933 3.04635C6.45362 2.25165 5.36077 1.3245 3.96435 1.3245C2.20365 1.3245 1.05009 3.11258 1.05009 5.09932Z" fill-rule="evenodd"/>
	</g>
	<defs>
		<clipPath id="clip_1">
			<rect x="-4537.8398" y="-93.550003" width="5030.3999" height="5816.3999" clip-rule="evenodd"/>
		</clipPath>
	</defs>
	<g clip-path="url(#clip_1)">
		<path fill="none" stroke="rgb(0,0,0)" stroke-width="0.69999999" stroke-miterlimit="4" transform="matrix(3.93 0 0 3.93 1.31006 0.77002)" d="M7.50002 1.5462C8.10002 0.865873 9.30002 0 10.98 0C13.32 0 15 2.16468 15 4.7623C15 8.72057 11.16 11.7511 7.80002 13.5447C7.62002 13.6066 7.44002 13.6066 7.26002 13.5447C3.84001 11.7511 0 8.72057 0 4.7623C0 2.16468 1.68 0 4.02001 0C5.76002 0 6.90002 0.927721 7.50002 1.5462ZM1.05009 5.09932C1.05009 8.60924 4.51077 11.5231 7.42504 13.1788C10.3393 11.5231 13.8 8.60924 13.8 5.0331C13.8 3.04635 12.6464 1.25828 10.8857 1.25828C8.94288 1.25828 7.91075 2.98013 7.91075 2.98013C7.78932 3.1788 7.60718 3.31125 7.42504 3.31125C7.2429 3.31125 7.06075 3.24502 6.93933 3.04635C6.45362 2.25165 5.36077 1.3245 3.96435 1.3245C2.20365 1.3245 1.05009 3.11258 1.05009 5.09932Z" fill-rule="evenodd"/>
	</g>

</svg>