<?xml version="1.0" encoding="utf-8" ?>
<svg xmlns="http://www.w3.org/2000/svg" xmlns:xlink="http://www.w3.org/1999/xlink" width="49" height="49">
	<defs>
		<clipPath id="clip_0">
			<rect x="-936" y="-84" width="5120" height="5920" clip-rule="evenodd"/>
		</clipPath>
	</defs>
	<g clip-path="url(#clip_0)">
		<path fill="rgb(155,155,155)" stroke="none" transform="scale(4 4)" d="M9.54 8.6L11.8067 10.86C11.9329 10.9852 12.0039 11.1556 12.0039 11.3333C12.0039 11.5111 11.9329 11.6815 11.8067 11.8067C11.6815 11.9329 11.5111 12.0039 11.3333 12.0039C11.1556 12.0039 10.9852 11.9329 10.86 11.8067L8.6 9.54C7.6683 10.2713 6.51777 10.6681 5.33333 10.6667C2.38781 10.6667 0 8.27885 0 5.33333C0 2.38781 2.38781 0 5.33333 0C8.27885 0 10.6667 2.38781 10.6667 5.33333C10.6681 6.51777 10.2713 7.6683 9.54 8.6ZM5.33333 1.33333C3.12419 1.33333 1.33333 3.12419 1.33333 5.33333C1.33333 7.54247 3.12419 9.33333 5.33333 9.33333C7.54247 9.33333 9.33333 7.54247 9.33333 5.33333C9.33333 3.12419 7.54247 1.33333 5.33333 1.33333Z" fill-rule="evenodd"/>
	</g>

</svg>